<svg xmlns="http://www.w3.org/2000/svg" xmlns:xlink="http://www.w3.org/1999/xlink" viewBox="0 0 80.88 100"><defs><style>.a{fill:none;}.b{fill:#040000;}.c{clip-path:url(#a);}.d{fill:#332c2a;}.e{fill:#73151b;}.f{fill:#303030;}.g{fill:#fff;}.h{fill:#204c97;}.i{fill:#afdaf4;}.j{clip-path:url(#b);}</style><clipPath id="a"><path class="a" d="M76.58,12.78,41.41,2.25a3.48,3.48,0,0,0-1-.1h0a3.48,3.48,0,0,0-1,.1L4.09,12.78a3.34,3.34,0,0,0-2.45,3.48c.72,17.18,3.07,31.8,7.16,43.66,3.17,9.3,7.46,16.87,12.58,22.39C29.45,91,37.83,97.75,40.08,98h1.23c1.64-.1,9.82-6.54,18.2-15.64,5.11-5.52,9.3-13.09,12.58-22.39,4.09-11.86,6.44-26.48,7.16-43.66A3.74,3.74,0,0,0,76.58,12.78Z"/></clipPath><clipPath id="b"><circle class="a" cx="40.9" cy="72.7" r="17.08"/></clipPath></defs><path class="b" d="M78.12,11.15,41.41.2a3.63,3.63,0,0,0-1-.2h0a3.63,3.63,0,0,0-1,.2L2.66,11.15A3.74,3.74,0,0,0,0,14.83C.72,32.72,3.27,48,7.46,60.33,10.84,70,15.24,77.91,20.55,83.64,28.94,92.74,37.63,99.8,40,100h1.33c1.74-.1,10.22-6.75,19-16.36C65.64,77.81,70,70,73.42,60.33c4.19-12.27,6.75-27.61,7.46-45.5A3.93,3.93,0,0,0,78.12,11.15Z"/><g class="c"><path class="d" d="M73.93,78.94,40.7,106.75,7.16,84.36C3.58,76.89,1.43,73.42,1.23,69.63V-3.07H79.55v72.7A12.11,12.11,0,0,1,73.93,78.94Z"/><path class="e" d="M1.23,55.11,40.39,36.5,79.55,55.11V-3.17H1.23Z"/><path class="f" d="M79.69,55.33l-.2-.09L40.39,36.66,1.09,55.33V-3.31h78.6Zm-39.3-19,.06,0,39,18.52V-3h-78V54.89Z"/><rect class="d" x="1.23" y="-3.07" width="78.32" height="3.48"/><polygon class="g" points="0.92 57.98 40.39 39.77 79.75 58.59 79.75 55.11 40.39 35.79 0.92 54.7 0.92 57.98"/></g><path class="g" d="M21.57,18a3.25,3.25,0,0,1-1.12,1.23,2.89,2.89,0,0,1-1.53.41H18.2A3.07,3.07,0,0,1,15.34,18l-.1-.1a.32.32,0,0,1-.1-.2v-.41a.77.77,0,0,1,.1-.41c.1-.1.1-.2.2-.31s.2-.2.31-.2.2-.1.41-.1a.92.92,0,0,1,.51.1c.2.1.31.2.31.41v.1c-.51,0-.72.2-.72.61A1.34,1.34,0,0,0,17,18.71a2.35,2.35,0,0,0,1.43.41,2.44,2.44,0,0,0,1.43-.51,1.8,1.8,0,0,0,.61-1.33A1.54,1.54,0,0,0,20,16.16a1.42,1.42,0,0,0-1-.51,1.48,1.48,0,0,0-.72.2.74.74,0,0,0-.41.61h-.1a2.78,2.78,0,0,1-1.74-.61,2,2,0,0,1-.72-1.64,2,2,0,0,1,.72-1.53A2.63,2.63,0,0,1,17.59,12a3.15,3.15,0,0,1,1.33.31l1.53.61a.53.53,0,0,0,.41-.2c.2-.2.2-.2.31-.2l.1.1a.1.1,0,0,1,.1.1,1.63,1.63,0,0,1-.51,1,1.25,1.25,0,0,1-.92.41,2.29,2.29,0,0,1-1-.31c-.1-.1-.2-.1-.41-.2a5.87,5.87,0,0,1-.72-.41,2.35,2.35,0,0,0-.92-.31,1.45,1.45,0,0,0-.61.2.73.73,0,0,0-.31.61,1.24,1.24,0,0,0,.61,1,1.7,1.7,0,0,0,1.12.41h1a1.26,1.26,0,0,1,.82-.51c.1,0,.31-.1.41-.1a1.9,1.9,0,0,1,1.74,1.33,1.45,1.45,0,0,1,.2.61v.41A2.67,2.67,0,0,1,21.57,18Z"/><path class="g" d="M26.48,19.22a.36.36,0,0,1-.2.1c-.1,0-.2.1-.31.2h-.1a.78.78,0,0,1-.41-.2l-.41-.51-.61.41c-.41.31-.61.41-.72.41a1.86,1.86,0,0,1-1.12-.51,2.41,2.41,0,0,1-.72-1.64,2.85,2.85,0,0,1,.92-1.84,2.63,2.63,0,0,1,1.94-1,1.58,1.58,0,0,1,.61.31,1.58,1.58,0,0,0,.61.31,1.36,1.36,0,0,0,.72-.31h.1V15l-.51.61a1.48,1.48,0,0,0-.2.72V18a.56.56,0,0,0,.41.61,1.12,1.12,0,0,1,.41.2Zm-1.12-3.17h-.2a1.36,1.36,0,0,1-.72-.31c-.31-.2-.51-.41-.61-.41a.56.56,0,0,0-.61.41,2.41,2.41,0,0,0-.2.82v.31a2.83,2.83,0,0,0,.51,1.23,1.41,1.41,0,0,0,.92.51c.2,0,.31,0,.41-.1l.2-.1V17l.1-.2.41-.72v.1C25.56,16.05,25.46,16.05,25.36,16.05Z"/><path class="g" d="M31.8,18.71a2.09,2.09,0,0,1-1.53.92H30l-.31-.2-.41-.2V21l.2.2v.31h-.2l-.31-.1h-.41a.79.79,0,0,0-.31.1h-.51v-.2a.1.1,0,0,0,.1-.1.86.86,0,0,0,.2-.61V19h-.2l-.31.1V19h0a.53.53,0,0,1,.2-.41c.1-.1.2-.2.2-.31V16.16c0-.2-.1-.41-.2-.41s-.2-.1-.41-.1v-.2l.51-.41a1.58,1.58,0,0,1,.61-.31c.1,0,.2.1.31.2l.41.61,1.53-.92a2.4,2.4,0,0,1,1,.82,2,2,0,0,1,.61,1.43v.31C32.52,17.59,32.21,18.1,31.8,18.71Zm-1.23-3.07c-.2-.1-.31-.2-.41-.2v.1a4.45,4.45,0,0,1-.72.41v.82h-.1V18a2,2,0,0,1,1.23.82H31l.41-.51a1.93,1.93,0,0,0,.2-.82A1.66,1.66,0,0,0,30.57,15.64Z"/><path class="g" d="M33.44,19.63v-.1l.2-.41a.61.61,0,0,0,.1-.41V16.05c0-.31-.2-.41-.51-.41-.1,0-.2-.1-.31-.2a1.43,1.43,0,0,1,.72-.41l.61-.31c.2,0,.31.2.41.51l.2.41v3.27c0,.2,0,.31.1.41l.2.31v.1H33.44Zm1.43-5.93c-.2.31-.41.41-.51.41s-.2-.2-.2-.51A1.8,1.8,0,0,1,34,13c0-.2.1-.31.2-.51a.62.62,0,0,1,1,.41A3.06,3.06,0,0,1,34.87,13.7Z"/><path class="g" d="M39.06,16.16l-1.12.72-.72.41a2.83,2.83,0,0,1-.72.41c.1.1.1.2.2.2l.1.1a1.46,1.46,0,0,0,1,.41,1.16,1.16,0,0,0,.82-.31l.61-.61c.1,0,.1,0,.1.1v.2a1.78,1.78,0,0,1-.61,1.12,1.78,1.78,0,0,1-1.12.61h-.51c-.41,0-.72-.2-1.12-.72a2.2,2.2,0,0,1-.61-1.33v-1A2.2,2.2,0,0,1,36,15.13a1.58,1.58,0,0,1,1.23-.72h.41a4.27,4.27,0,0,1,1,.51c.51.31.82.51.82.61C39.67,15.75,39.47,15.85,39.06,16.16Zm-1.64-.82a.53.53,0,0,0-.41-.2.56.56,0,0,0-.51.31l-.31.61v.72a.32.32,0,0,0,.1.2c0,.1.1.2.2.31a2.53,2.53,0,0,1,.61-.41l1.23-.72A2.21,2.21,0,0,1,37.42,15.34Z"/><path class="g" d="M45.09,19.43l-.51.31c-.1,0-.2-.1-.41-.31a.74.74,0,0,1-.41-.61V16.46a.78.78,0,0,0-.2-.51c0-.1-.2-.2-.51-.41l-1.12.61v2.76c0,.2,0,.41.1.41a.36.36,0,0,1,.1.2v.1h-.31l-.1-.1a.92.92,0,0,0-.51-.1,1.73,1.73,0,0,0-.51.2h-.1v-.31a.5.5,0,0,1,.1-.31l.1-.41V16.05c0-.2-.1-.31-.31-.51s-.31-.1-.41-.2a3.69,3.69,0,0,1,.51-.41l.1-.1a.1.1,0,0,0,.1-.1l.31-.2a.74.74,0,0,1,.61.41l.41.61,1.74-1a1.37,1.37,0,0,1,.72.61,1.25,1.25,0,0,1,.41.92v2a.86.86,0,0,0,.2.61.45.45,0,0,0,.31.1.36.36,0,0,1,.2.1A3.24,3.24,0,0,1,45.09,19.43Z"/><path class="g" d="M48.47,15.64c-.1,0-.2.1-.31.1s-.31.1-.41.1v1.94a.81.81,0,0,0,.92.92h.41v.1c-.1.1-.2.2-.31.2s-.2.1-.31.2c-.41.31-.61.41-.72.41s-.41-.1-.72-.41-.51-.51-.51-.72V15.75c-.1,0-.1,0-.2.1l-.1.1h-.1v-.31c.1-.1.1-.31.2-.41s.1-.2.2-.31a.1.1,0,0,1,.1-.1V14a1.47,1.47,0,0,1,.2-.92A.36.36,0,0,1,47,13c.1,0,.31-.2.61-.31h.1v2.15h.72c.2,0,.31,0,.41-.1l.31-.2c.1.1.1.1.1.2C49.28,15,49,15.34,48.47,15.64Z"/><path class="g" d="M50,19.63v-.1l.2-.41a.61.61,0,0,0,.1-.41V16.05c0-.31-.2-.41-.51-.41-.1,0-.2-.1-.31-.2A1.43,1.43,0,0,1,50.2,15l.61-.31c.2,0,.31.2.41.51l.2.41v3.27c0,.2,0,.31.1.41l.2.31v.1H50Zm1.43-5.93c-.2.31-.41.41-.51.41s-.2-.2-.2-.51a1.11,1.11,0,0,1-.1-.51c0-.2.1-.31.2-.51a.62.62,0,0,1,1,.41A5.87,5.87,0,0,1,51.43,13.7Z"/><path class="g" d="M56.65,19.22a.36.36,0,0,1-.2.1c-.1,0-.2.1-.31.2H56a.78.78,0,0,1-.41-.2l-.41-.51-.61.41c-.41.31-.61.41-.72.41a1.86,1.86,0,0,1-1.12-.51A2.41,2.41,0,0,1,52,17.48,2.85,2.85,0,0,1,53,15.64a2.63,2.63,0,0,1,1.94-1,1.58,1.58,0,0,1,.61.31,1.58,1.58,0,0,0,.61.31,1.36,1.36,0,0,0,.72-.31H57V15l-.51.61a1.48,1.48,0,0,0-.2.72V18a.56.56,0,0,0,.41.61,1.12,1.12,0,0,1,.41.2Zm-1-3.17h-.2a1.36,1.36,0,0,1-.72-.31c-.31-.2-.51-.41-.61-.41a.56.56,0,0,0-.61.41,1.93,1.93,0,0,0-.2.82v.31a2.83,2.83,0,0,0,.51,1.23,1.41,1.41,0,0,0,.92.51c.2,0,.31,0,.41-.1l.2-.1V17l.1-.2.41-.72v.1A.32.32,0,0,0,55.62,16.05Z"/><path class="g" d="M65.44,19.22c-.1.1-.2.1-.2.2l-.41.31c-.2,0-.31-.1-.61-.41a1.58,1.58,0,0,1-.31-.61V16.26a.78.78,0,0,0-.2-.41.41.41,0,0,0-.41-.2l-.1.1-.1.1c-.1,0-.1.1-.2.1-.31.2-.51.31-.51.41V19l.1.31.2.41h-.82c-.2,0-.31.1-.41.1h-.2v-.1l.1-.51.1-.41V16.26c0-.1,0-.2-.1-.2a.36.36,0,0,0-.1-.2l-.2-.2a.36.36,0,0,1-.2-.1c-.1.1-.31.1-.41.31-.31.2-.41.31-.41.41v2.45a.77.77,0,0,0,.1.51c.1.1.1.1.1.2v.1h-.1l-.31-.1c-.1,0-.2-.1-.31-.1a.79.79,0,0,0-.31.1.38.38,0,0,1-.31.1c-.1,0-.2,0-.2-.1l.1-.31a4.43,4.43,0,0,0,.1-.51V16.16a.77.77,0,0,0-.1-.41c-.1-.1-.2-.2-.31-.2h-.31v-.1c0-.1.2-.31.51-.61l.61-.41c.1,0,.31.2.51.51l.31.51,1.53-1.12c.2,0,.41.2.72.51l.41.51,1.64-1.12c.1.1.2.1.41.2l.31.31a1.06,1.06,0,0,1,.41.82v2.15c0,.41,0,.61.1.72s.1.1.31.1h.1v.1Z"/><path class="g" d="M32.31,26.89A6.3,6.3,0,0,1,31,29.24l-1,1.23-.51.61-.1.31c-.1.2-.2.2-.41.2s-.2-.1-.31-.31-.1-.2-.1-.41a6.52,6.52,0,0,1-.2-.92l-.2-.41-.51-1.12-.31-.72-.41-.92L26.48,26a.32.32,0,0,1-.1-.2h-.2c-.1,0-.2,0-.2-.2s.31-.41.82-.72l.82-.61c.1,0,.1.1.1.2a.32.32,0,0,1-.1.2.36.36,0,0,1-.1.2l2.25,5.32A4,4,0,0,0,30.67,29a4.59,4.59,0,0,0,.72-1.53V27a2.35,2.35,0,0,0-.31-.92,1,1,0,0,0-.72-.61c-.1,0-.2,0-.2.1a.5.5,0,0,1-.31.1c-.1,0-.1-.1-.1-.2s.1-.2.31-.31l.61-.41.31-.31c.1-.1.2-.1.31-.2.31,0,.61.2.92.72a2.12,2.12,0,0,1,.51,1.23v.31Z"/><path class="g" d="M32.82,31.7v-.1l.2-.41a.61.61,0,0,0,.1-.41V28.12c0-.31-.2-.41-.51-.41-.1,0-.2-.1-.31-.2A1.43,1.43,0,0,1,33,27.1l.61-.31c.2,0,.31.2.41.51l.2.41V31c0,.2,0,.31.1.41l.2.31v.1H32.82Zm1.43-5.93c-.2.31-.41.41-.51.41s-.2-.2-.2-.51a1.8,1.8,0,0,1-.1-.61c0-.2.1-.31.2-.51a.62.62,0,0,1,1,.41A3.06,3.06,0,0,1,34.25,25.77Z"/><path class="g" d="M38.24,31.29a1.9,1.9,0,0,1-1.12.41,2.27,2.27,0,0,1-2.15-2v-.82a1.93,1.93,0,0,1,.72-1.43,1.79,1.79,0,0,1,1.43-.72,1.45,1.45,0,0,1,.61.2l.41.2h.31c.1-.1.1-.1.2-.1a.36.36,0,0,1,.2.1.93.93,0,0,1-.31.51.89.89,0,0,1-.72.41,2.71,2.71,0,0,1-1-.31.66.66,0,0,0-.51-.2.88.88,0,0,0-.61.31c-.1.2-.2.31-.2.41v.41a2.27,2.27,0,0,0,1.74,1.74h.41c.2,0,.31-.1.51-.2l.51-.41h.2v.41C39,30.57,38.65,31,38.24,31.29Z"/><path class="g" d="M41.72,27.61c-.1,0-.2.1-.31.1s-.31.1-.41.1v1.94a.81.81,0,0,0,.92.92h.41v.1c-.1.1-.2.2-.31.2s-.2.1-.31.2c-.41.31-.61.41-.72.41s-.41-.1-.72-.41-.51-.51-.51-.72V27.71c-.1,0-.1,0-.2.1l-.2.1h-.1v-.31c.1-.1.1-.31.2-.41s.1-.2.2-.31a.1.1,0,0,1,.1-.1V26a1.47,1.47,0,0,1,.2-.92.36.36,0,0,1,.2-.1c.1,0,.31-.2.61-.31h.1v2.15h.72c.2,0,.31,0,.41-.1l.31-.2c.1.1.1.1.1.2C42.54,27.1,42.23,27.4,41.72,27.61Z"/><path class="g" d="M46.42,31A2.11,2.11,0,0,1,45,31.7a2.13,2.13,0,0,1-1.64-.82,1.77,1.77,0,0,1-.61-1.23v-.51a2.13,2.13,0,0,1,.72-1.53c.51-.61.92-.92,1.43-.92h.41a1.92,1.92,0,0,1,1.33.72,2.46,2.46,0,0,1,.72,1.84A2.28,2.28,0,0,1,46.42,31Zm.2-1.43L46.32,29c-.61-.92-1.23-1.43-1.94-1.43-.41,0-.61.2-.82.61,0,.1-.1.2-.1.41a2.1,2.1,0,0,0,.82,1.43,2.13,2.13,0,0,0,1.53.72c.2,0,.31-.1.51-.2l.41-.51v-.51Z"/><path class="g" d="M50.72,28.43h-.1v-.51a.27.27,0,0,0-.31-.31c-.1,0-.2.1-.31.2s-.2.2-.2.31v2.76c0,.1.1.2.2.31s.2.2.2.31a.1.1,0,0,1-.1.1H50l-.41-.1c-.1,0-.2-.1-.41-.1s-.31,0-.41.1l-.31.1h-.1l-.1-.1.2-.2c.1-.2.2-.31.2-.41V28.22a.78.78,0,0,0-.2-.51l-.72-.2a1.22,1.22,0,0,1,.41-.41c.31-.2.51-.41.61-.41l.2.1a1.37,1.37,0,0,1,.61.72A1.22,1.22,0,0,0,50,27.1a.77.77,0,0,1,.72-.41l.51.1a.78.78,0,0,1,.51.2Z"/><path class="g" d="M52.56,31.7v-.1l.2-.41a.61.61,0,0,0,.1-.41V28.12c0-.31-.2-.41-.51-.41-.1,0-.2-.1-.31-.2a1.43,1.43,0,0,1,.72-.41l.61-.31c.2,0,.31.2.41.51l.2.41V31c0,.2,0,.31.1.41l.2.31v.1H52.56Zm1.33-5.93c-.2.31-.41.41-.51.41s-.2-.2-.2-.51a1.8,1.8,0,0,1-.1-.61c0-.2.1-.31.2-.51a.62.62,0,0,1,1,.41A3.06,3.06,0,0,1,53.89,25.77Z"/><path class="g" d="M59.1,31.29a.36.36,0,0,1-.2.1c-.1,0-.2.1-.31.2h-.1a.78.78,0,0,1-.41-.2l-.41-.51-.61.41c-.41.31-.61.41-.72.41a1.86,1.86,0,0,1-1.12-.51,2.41,2.41,0,0,1-.72-1.64,2.85,2.85,0,0,1,.92-1.84,2.63,2.63,0,0,1,1.94-1A1.58,1.58,0,0,1,58,27a1.58,1.58,0,0,0,.61.31A1.36,1.36,0,0,0,59.3,27h.1v.1l-.51.61a1.48,1.48,0,0,0-.2.72v1.64a.56.56,0,0,0,.41.61,1.12,1.12,0,0,1,.41.2Zm-1-3.17h-.2a1.36,1.36,0,0,1-.72-.31c-.31-.2-.51-.41-.61-.41a.56.56,0,0,0-.61.41,1.93,1.93,0,0,0-.2.82v.31a2.83,2.83,0,0,0,.51,1.23,1.41,1.41,0,0,0,.92.51c.2,0,.31,0,.41-.1l.2-.1V29l.1-.2.41-.72v.1C58.18,28.12,58.18,28.12,58.08,28.12Z"/><path class="g" d="M26.18,57.77l-.92.72-3.89-5.21,3.27-2.45.61.82L22.9,53.37l1,1.43,1.84-1.33.61.82-1.84,1.33Z"/><path class="g" d="M30.88,53.17l.92-.31a2,2,0,0,1-.2,1.33,3.25,3.25,0,0,1-1,1,2.09,2.09,0,0,1-1.74.1A2.79,2.79,0,0,1,27.51,54,2.6,2.6,0,0,1,27.3,52a2.24,2.24,0,0,1,1.23-1.33,2.09,2.09,0,0,1,1.74-.1A3,3,0,0,1,31.6,52v.1l-3,1.43a4.45,4.45,0,0,0,.41.72,2.24,2.24,0,0,0,.51.31.9.9,0,0,0,.72-.1A1.8,1.8,0,0,0,30.88,53.17Zm-.72-1.23a1.19,1.19,0,0,0-.61-.61,1.13,1.13,0,0,0-.82,0c-.31.1-.41.31-.51.61a1,1,0,0,0,.1.92Z"/><path class="g" d="M37,53l-1,.31-.72-3a.94.94,0,0,0-.41-.61.68.68,0,0,0-.61-.1c-.31.1-.51.2-.61.51a1.43,1.43,0,0,0,0,1.12l.61,2.35-1,.31-1.12-4.7L33,49l.31,1.12c.1-.92.51-1.43,1.12-1.53a1.41,1.41,0,0,1,1.12.1,2.34,2.34,0,0,1,.82,1.23Z"/><path class="g" d="M37.93,52.76l-.1-6.54h2.35a2.64,2.64,0,0,1,2.15.92,3.65,3.65,0,0,1,.82,2.35,3.16,3.16,0,0,1-.82,2.35,2.93,2.93,0,0,1-2.35.92Zm1.23-1h1a1.8,1.8,0,0,0,1.33-.61A2.36,2.36,0,0,0,42,49.39a3.09,3.09,0,0,0-.51-1.64,1.46,1.46,0,0,0-1.23-.61H39.16Z"/><path class="g" d="M45.81,53.27a1.67,1.67,0,0,1-1.43-1.12,2.89,2.89,0,0,1-.2-1.84,2.53,2.53,0,0,1,1-1.64,2.14,2.14,0,0,1,1.74-.41,2.11,2.11,0,0,1,1.43,1,2.25,2.25,0,0,1,.2,1.84,2.68,2.68,0,0,1-1,1.64A1.66,1.66,0,0,1,45.81,53.27Zm.2-.82c.72.1,1.23-.31,1.43-1.33a2.46,2.46,0,0,0,0-1.23.9.9,0,0,0-.72-.61.78.78,0,0,0-.92.31,2.31,2.31,0,0,0-.51,1.12,2.46,2.46,0,0,0,0,1.23A1.3,1.3,0,0,0,46,52.45Z"/><path class="g" d="M48.67,53.89,51.43,48l2.15,1a2.59,2.59,0,0,1,1.53,1.74,4.06,4.06,0,0,1-.2,2.45,3.13,3.13,0,0,1-4.29,1.64Zm1.53-.41.92.41a1.75,1.75,0,0,0,1.43,0,2.27,2.27,0,0,0,1.23-1.33,2.37,2.37,0,0,0,.2-1.64,1.47,1.47,0,0,0-.92-1.12l-1-.51Z"/><path class="g" d="M55.52,57.77a2,2,0,0,1-.82-1.64,2.78,2.78,0,0,1,.61-1.74,2.2,2.2,0,0,1,1.53-1,2.14,2.14,0,0,1,1.74.41,1.94,1.94,0,0,1,.82,1.53,2.67,2.67,0,0,1-.61,1.84,2.62,2.62,0,0,1-1.64,1A2,2,0,0,1,55.52,57.77Zm.51-.72q.92.61,1.84-.61a1.86,1.86,0,0,0,.51-1.12A.93.93,0,0,0,58,54.5a1,1,0,0,0-.92-.2,2.82,2.82,0,0,0-.92.72,2.16,2.16,0,0,0-.51,1.12A1.93,1.93,0,0,0,56,57.06Z"/><circle class="h" cx="40.9" cy="72.7" r="17.08"/><path class="i" d="M42.33,62.58c.2,0,.31.1.51.1v.1h-.1l-.2.2C42.43,62.68,42.43,62.68,42.33,62.58Z"/><g class="j"><path class="i" d="M29.45,56.65h-.1v.2c-.1.1-.2.1-.41.2v.2c-.1,0-.1.1-.2.1a.36.36,0,0,1-.1.2c-.1.1-.2,0-.2.1v.41c.1,0,.1.1.2.1a2.71,2.71,0,0,1,.51-.61.36.36,0,0,1,.1-.2h.1v.51c.1,0,.2,0,.2.1v.1H30v.1h.1v.1h.41a.36.36,0,0,0,.1.2c.2.1.41.1.61.2v-.1h.1v-.2a.36.36,0,0,0,.1-.2c.31.2.2.2.72.2a.61.61,0,0,0,.1.41h-.1V59l-.1.1c-.1.31.1.31.1.41.1.31-.1.41.31.51.1-.1.1-.2.2-.31h.1v.1c.31.1.72-.1.92-.1V59.1c.1,0,.2-.2.2-.2h.72V59h.31v.2c.1,0,.2-.1.31-.1v.1c.2,0,.1.1.2.2-.1-.2-.1-.31-.1.1.1,0,.1.1.2.1.1.2,1,.1,1.33.1v.2H37c0,.2-.1.41-.1.61l.1.1c.1,0,.2.1.31.1v.1h.31v.1h.61V61c.2.1.2.31.41.31,0-.1.1-.2.1-.41h-.1a.92.92,0,0,1,.1-.51h.1v.2l1.23.31c0,.1,0,.2.1.2s.1.1.2.1,0,.1.1.2h.2v.1c.1.1.2,0,.31.1a1.11,1.11,0,0,1,.1.61h.41c0,.1,0,.2.1.2h.1c.1.1.1.2.2.41-.1.1-.1,0-.1.2h-.1c0,.2-.1.41-.1.61-.2-.1-.1-.1-.31-.2v-.2c-.31-.1-.2-.1-.31-.2V63h-.51v.2h-.2c0,.2-.1.31-.1.61h.1c.1.31,0,.41,0,.72-.1,0-.41-.31-.72-.2,0,.1,0,.2-.1.2s-.2.1-.41.2a.61.61,0,0,1-.1.41.36.36,0,0,0-.2.1v.1c-.2,0-.31-.1-.51-.1v.1h-.1v.1c-.1,0-.2-.1-.41-.1-.1.2-.1.1-.1.51h.2V66h-.1v.1h-.2v.2h.1v.61l-.1.1v.61h-.2c-.1.31,0,.1-.2.2a1.1,1.1,0,0,0-.2.61c-.31,0-.2.1-.31.2,0-.41-.1-.72-.1-1.12h-.1c0-.1.1-.1.1-.2v-.1h-.1a.36.36,0,0,1,.1-.2v-.1h-.1v-.1h.1c0-.2,0-.2-.1-.31.2-.1.1-.1.2-.2v-.1h.31v-.1H37v-.2h.1c.1-.1.1-.1.1-.31.31-.1.2-.2.31-.51h.1c.1-.1,0-.1.1-.31-.2,0-.2.1-.41.2,0,.1,0,.2-.1.2s-.1-.1-.1-.2,0-.2,0-.51a1.1,1.1,0,0,0-.61.2c0,.2-.1.2-.1.31h-.1v.61c-.1,0-.2.1-.41.1,0,.1,0,.1-.1.2h-.1v-.1c-.1-.1,0,0-.1-.2-.1,0-.31-.1-.41-.1v.1h-.41c-.1,0-.41-.2-.61-.1,0,.1,0,.1-.1.2h-.1v.2h-.1c-.1.31-.2.61-.61.72-.1.41-.2.31-.2.82.1,0,.2,0,.2-.1v.2c.1,0,.2-.1.41-.1,0,.1,0,.2.1.2a2,2,0,0,1,.1.82c-.1.41-.2.82-.31,1.33h-.1a.92.92,0,0,1-.1.51c-.1,0,0-.1-.1-.1s-.1.2-.1.2H33c0,.2-.1.2-.1.41-.1,0-.2.1-.31.1V71h-.41v.1c-.1.1-.1.31-.2.51l-.2.2v.61a.6.6,0,0,1,.2.51c-.2.1-.31.41-.41.61-.1,0-.1-.1-.2-.1v-.2h-.1a5.83,5.83,0,0,0-.1-1.33c-.2-.1-.1,0-.2-.2-.31,0-.51-.1-.61.2h-.1c-.1.1,0,.1-.1.2s.1.2.1.41.31.1.61.1c0,.41-.1.2-.2.41h-.1v.72h.1v.92l-.1.1v.31h-.1v.31l-.1.1c-.1.1-.1.2-.1.41-.2.1-.31.2-.51.31s-.31.1-.51.1c0,.1,0,.1-.1.2-.31.2-.51-.1-.72.2h-.1V77h.1a.61.61,0,0,0,.1.41l.2.2a1.52,1.52,0,0,1,.1.72,1.1,1.1,0,0,0-.2.61c-.2.1-.2.2-.61.2,0-.2-.1-.41-.1-.61-.2-.1-.2-.2-.51-.2a2.83,2.83,0,0,1-.1.92l.1.1a.38.38,0,0,0,.1.31.72.72,0,0,1,.41.51H28a1.3,1.3,0,0,0,.1.61h-.2v-.2h-.2v-.1h-.1a1.3,1.3,0,0,0-.1-.61h-.1c-.1-.1,0-.1-.1-.31h-.1c0-.2-.1-.2-.1-.2,0-.61-.1-1.23-.1-1.74h-.61a1.3,1.3,0,0,0-.1-.61,2.86,2.86,0,0,1-.2-1.12h-.31c0,.1,0,.1-.1.2h-.2v.1a.36.36,0,0,0-.2.1c-.1.31-.1.2-.2.31h-.1v.2c-.31,0-.2.1-.41.2,0,.2-.1.2-.1.31h-.1v.2h-.1a.92.92,0,0,1-.1.51H24a.92.92,0,0,1-.1.51c.1,0,.1.1.2.1a.92.92,0,0,0,.1.51h.1a.61.61,0,0,1-.1.41c-.2-.1-.1,0-.2-.2h-.1v-.61c-.31,0-.2.1-.41.2a.92.92,0,0,0-.1-.51l-.2-.2V78h-.1a.92.92,0,0,0-.1-.51,5.07,5.07,0,0,1-.31-1.33.92.92,0,0,1-.51-.1v-.2c-.2-.2-.2-.51-.41-.61v-.1h-.51v.1a1.68,1.68,0,0,1-1-.2c0-.1,0-.1-.1-.2s-.41-.1-.61-.1v-.2c-.2-.1-.1-.1-.31-.2v-.2c-.2-.1-.2-.31-.41-.31a3,3,0,0,0,.2,1c.1,0,.1.1.2.1a.38.38,0,0,0,.1.31.64.64,0,0,0,.61,0v-.2h.2c.1.1.1.2.2.2v.2c.1,0,.31.1.2.31h-.1V76c-.1.1-.2.1-.41.2a.92.92,0,0,1-.61.61l-.1.1v.2c-.1,0-.2.1-.41.1a.36.36,0,0,1-.1.2h-.1v.1H18c0-.1,0-.1-.1-.2h-.1v-.2h.1V77l-.1-.1c-.1-.31,0-.31-.2-.51l-.1-.1c0-.31-.1-.31-.2-.51h-.1v-.1h.1a.38.38,0,0,0-.1-.31h-.1v-.2H17a.38.38,0,0,0-.1-.31h-.1v-.2l-.1-.1a1.3,1.3,0,0,0-.1-.61h-.1v-.1h-.2a2.25,2.25,0,0,0,.1.82l.1.1v.2h.1a.38.38,0,0,0,.1.31l.1.1v.2h.1v.2H17a.38.38,0,0,0,.1.31h.1v.2h.1l.1.1c.1.51.51.51.61,1h.1v.2a2,2,0,0,0,1.33,0v.31c-.1.1-.1.2-.2.31l-.1.1v.2H19v.2h-.1a.38.38,0,0,1-.1.31h-.1v.2l-.2.2v.1h-.1c0,.1,0,.1-.1.2h-.1c0,.1,0,.1-.1.2H18v.1l-.2.2v.2h-.1v.2l-.2.2c0,.1,0,.2-.1.2l-.1.1v1.33c.2.2.1.82.1,1.12-.1,0-.1.1-.1.2h-.2a.78.78,0,0,0-.2.41h-.1v.1l-.1.1v.92c-.31.2-.2.61-.41,1h-.1v.2h-.1v.2H16V87c-.1,0-.1.1-.2.1s-.1.2-.2.31h-.1V59.82c.1,0,.2.1.31.1v.31c.1.1.2.1.41.1v.51c.31,0,.31-.1.61,0H17c0,.1,0,.1.1.2a.8.8,0,0,0,.41.41v.82h-.61c-.1-.2-.2-.1-.2-.41h-.2c0,.1-.1.2-.1.41h.1v.2l.2.2a1.3,1.3,0,0,0,.1.61h.41c.1-.31,0-.2.41-.2v.2c.1,0,.1.1.31.1,0-.41-.1-.31-.1-.72.2-.1.2-.31.41-.41.1.2.1.1.2.2v-.92h-.1c-.1-.1,0-.1-.1-.31s0-.31-.1-.31v-.1h.1V61a1.5,1.5,0,0,0,.41.2c0,.2,0,.2-.1.31h.1l.1.1c0-.1,0-.2.1-.2A2.28,2.28,0,0,1,20.14,61v.2c.31.1.51.1.82.2a1.3,1.3,0,0,1,.1-.61c-.2-.1-.31-.31-.51-.41a.38.38,0,0,0-.1-.31.79.79,0,0,1,.31.2h.1c0,.1,0,.2.1.2s.41.1.51.2a.38.38,0,0,0,.1.31h.2v.2c.2,0,.2.1.41.2a.61.61,0,0,0-.1-.41c-.1,0-.1-.1-.2-.1a2.57,2.57,0,0,1,.1-1.53l.2-.2V59l.1-.1a1.11,1.11,0,0,0,.1-.61c.1,0,.1-.1.2-.1v.2c-.1.1,0,0-.1.2h.2c0,.2-.2,1.33-.2,1.33l.1.1v.2h.2a1.3,1.3,0,0,1,.1-.61H23a.36.36,0,0,1,.1-.2h.1v.2c.31,0,.41-.31.61-.2a.36.36,0,0,0,.1.2,4.26,4.26,0,0,0,.61.2c0-.31-.2-.41-.1-.61h-.1V59c-.2-.1-.2-.2-.2-.61h.1v-.2c.2,0,.41-.1.61-.1a.77.77,0,0,0-.1-.51h-.1v-.1h.1c.1-.1.1-.1.1-.31.1,0,.31-.1.41-.1s.1-.2.2-.2v-.2c.2-.1.1-.1.2-.2h.2v-.1H26V56c.1,0,.2-.1.31-.1v-.1c.2,0,.41-.1.61-.1.1.31.2.2.2.61a.36.36,0,0,1,.2.1v-.1h.1V56h-.1v-.2c-.2-.1-.2,0-.2-.31a4.08,4.08,0,0,0,.31-.41H28v.1c.1,0,.2-.1.41-.1v.1c.31.1.61-.1.72.2a1.76,1.76,0,0,1,.1.82C29.24,56,29.45,56.44,29.45,56.65Z"/><path class="i" d="M35.28,54.81a1.11,1.11,0,0,1-.1.61c-.2.1-.1.1-.31.2v-.31h-.1c0-.2.1-.2.1-.41C35,54.91,35.17,54.81,35.28,54.81Z"/><path class="i" d="M22.19,56.24a1.1,1.1,0,0,0-.61.2c-.1.2-.2.2-.2.51h-.2c0,.1,0,.2-.1.2a1.38,1.38,0,0,0-.51.92.36.36,0,0,0-.2.1c0,.1,0,.2.1.2h-.1a3.48,3.48,0,0,1-.1,1l.2.2c0,.1,0,.2.1.2-.1,0-.31.1-.41.1v-.1h-.2v-.41h-.2a1.3,1.3,0,0,1,.1-.61l.1-.1c0-.1,0-.2-.1-.2h.1a.38.38,0,0,0,.1-.31h.1v-.41a.36.36,0,0,1-.1-.2h.1l.1-.1c0-.41.1-.61.1-.92h.1a.78.78,0,0,0,.2-.41h.1v-.2h.1v-.2c.1-.1.2-.1.31-.2v-.1c.2,0,.51-.1.72-.1a.78.78,0,0,0,.2-.41c.1-.1.31-.1.41-.2v.2h-.1v.51l-.1.1A2.3,2.3,0,0,0,22.19,56.24Z"/><path class="i" d="M33.84,55.62H34c.2.51.41.31.41,1.23-.1.1,0,0-.1.2l-.1-.1a2.88,2.88,0,0,1-.41-1.12h-.1A.32.32,0,0,0,33.84,55.62Z"/><path class="i" d="M33.54,55.73a2.83,2.83,0,0,0,.1.92h.1a.61.61,0,0,1-.1.41c-.41-.1-.1-.31-.31-.51h-.1V56c.1-.1.1-.2.2-.31Z"/><path class="i" d="M35.28,57a.92.92,0,0,1-.51-.1c0-.2,0-.2.1-.31.1.1.31.1.51.2v.1C35.28,56.85,35.28,56.75,35.28,57Z"/><path class="i" d="M32.82,57.26h0a.32.32,0,0,1,.1.2h-.1Z"/><path class="i" d="M34.25,57.77v.51c-.2,0-.31,0-.41-.1V58C34,58,33.95,57.87,34.25,57.77Z"/><path class="i" d="M23.52,58.28h-.2v-.1c.1,0,.1,0,.2.1-.1-.1-.1-.1-.1-.2S23.52,58.28,23.52,58.28Z"/><path class="i" d="M24,58.49c.1.1,0,0,.1.2H24Z"/><path class="i" d="M23.42,58.59c.1,0,.1.1.2.1v.2h-.1v-.2h-.1Z"/><path class="i" d="M40.49,59.61v.2c-.1,0-.2.1-.41.1,0-.1,0-.1-.1-.2C40.18,59.71,40.29,59.61,40.49,59.61Z"/><path class="i" d="M38.14,60.53h.1v.1Z"/><path class="i" d="M18.92,60.74v-.2c.1,0,.1.1.2.1v.1Z"/><path class="i" d="M33.33,67h.1c-.1.1,0,0-.1,0,.1.1.1.1.1.2C33.33,67.08,33.33,67.18,33.33,67Z"/><path class="i" d="M36.09,68.61c.1.1,0,0,.1.2h-.1Z"/><path class="i" d="M36,68.81h.1c0,.1,0,.2-.1.2h-.1C36,69,36,68.92,36,68.81Z"/><path class="i" d="M33.95,70.25c.31,0,.31.2.61.2v.31c-.1,0-.2.1-.41.1,0,.1,0,0,.1.1s-.1.1-.1.1V71h-.31a.92.92,0,0,1,.1-.51H34C33.95,70.45,33.95,70.35,33.95,70.25Z"/><path class="i" d="M33.64,72.8c-.2,0-.41.1-.61.1v.2l-.61.31v-.2h-.2a.92.92,0,0,1-.1.51H32v-.2h-.1c.1-.31.2-.31.2-.61.1,0,.2-.1.31-.1v-.2a.36.36,0,0,0,.2-.1v-.2c.31-.1.31-.31.61-.31,0-.31.1-.41.1-.61.1,0,.1,0,.1.1h.1V72C33.74,72.09,33.64,72.6,33.64,72.8Z"/><path class="i" d="M30.67,75.26h0c.1.2,0,.51,0,.61h-.1v-.31h.1Z"/><path class="i" d="M28.83,76.48H29v.2h-.2Z"/><path class="i" d="M30.67,76.69c.31.1.2.41.2.82.1,0,.2.1.31.1v.1c-.31.1-.2.2-.1.51h.2c-.1.31-.1.31-.41.31v.1h-.2a.38.38,0,0,1,.1-.31h.1c0-.51-.31-.41-.31-1A1.11,1.11,0,0,0,30.67,76.69Z"/><path class="i" d="M31.49,78.12h-.1c0-.1-.1,0,.1,0-.1-.1-.1-.1-.1-.2C31.49,78.12,31.39,78,31.49,78.12Z"/><path class="i" d="M30.47,78.32h-.1c.1-.1,0,0,.1,0-.1-.1-.1-.1-.1-.2C30.47,78.22,30.47,78.12,30.47,78.32Z"/><path class="i" d="M31.6,79.24h-.1v.2c-.2-.1-.1,0-.2-.2-.1,0-.2-.1-.31-.1V79h.1c.1-.2.31-.2.51-.31C31.49,78.83,31.6,79,31.6,79.24Z"/><path class="i" d="M30.88,79.35h-.1c0-.2,0-.1.1-.2L31,79v.2C30.88,79.35,30.88,79.24,30.88,79.35Z"/><path class="i" d="M30.27,79.24a9.17,9.17,0,0,1-.2,1.84,2.78,2.78,0,0,1-.92,0v-.31c-.1,0-.1-.1-.2-.1a.92.92,0,0,0-.1-.51c.31-.2.51-.31.82-.51C29.75,79.35,29.86,79.24,30.27,79.24Z"/><path class="i" d="M26.69,79.35h.1v.1C26.69,79.45,26.69,79.45,26.69,79.35Z"/><path class="i" d="M26.79,79.45c.31,0,.2.1.31.2v.1h.1a.38.38,0,0,0,.1.31c.2.1.2.2.41.2a.38.38,0,0,0,.1.31c.1,0,.1.1.2.1v.2c.1,0,.2,0,.2.1v.1h.2v.1h-.2v.31h.1v.2c.1.1.31.2.41.31h.51v.1h.31l.1.1c0,.1,0,.2.1.2H29v-.1h-.2c0-.1,0-.1-.1-.2h-.2V82h-.2v-.1h-.1c0-.1,0-.1-.1-.2H28v-.1c-.2-.1-.1.1-.2-.2h-.1c-.1-.1,0-.31-.31-.41a.92.92,0,0,0-.1-.51h-.2v-.2l-.1-.1v-.31h-.2C26.89,79.75,26.79,79.65,26.79,79.45Z"/><path class="i" d="M31.9,80.78h-.2v-.41l.2-.2Z"/><path class="i" d="M31.08,80.47v.41c-.1,0-.1.1-.2.1v.51h-.1v-.1h-.2v.41h-.1a5.83,5.83,0,0,1,.1-1.33c.1,0,.2-.2.2-.2h.61v.1h-.1C31.19,80.47,31.19,80.47,31.08,80.47Z"/><path class="i" d="M33.13,80.78c0,.1,0,.2.1.2a.77.77,0,0,1,.51-.1v.2c.2.1.41.1.61.2,0,.1,0,.1.1.2h.2v.1c.1.1.1.2.31.2a7,7,0,0,0,.31.82.36.36,0,0,1-.2-.1v-.1h-.2c0-.1,0-.1-.1-.2s-.2-.1-.41-.1c0,.1,0,.2-.1.2s-.51-.1-.72-.1V81.7l-.2-.2v-.1c-.1,0-.2-.1-.41-.1,0-.1,0-.1-.1-.2h-.2c-.1-.1-.1-.31-.2-.41A1.74,1.74,0,0,0,33.13,80.78Z"/><path class="i" d="M31.29,80.88h.1v.2h-.1Z"/><path class="i" d="M35.38,81.08v-.2c.1.1,0,0,0,.2l.1-.1C35.48,81.08,35.48,81,35.38,81.08Z"/><path class="i" d="M35.48,81.08h.2v.1c-.1,0-.1,0-.2-.1Z"/><path class="i" d="M31.9,81.19h.2v.1c0-.1-.1-.1-.2-.1Z"/><path class="i" d="M35.69,81.19c.2,0,.2.1.41.2v.1h-.41Z"/><path class="i" d="M35.69,81.39c0,.31-.1.31-.41.31,0-.1,0-.2-.1-.2h.41C35.69,81.39,35.58,81.39,35.69,81.39Z"/><path class="i" d="M36.4,82.21c0,.1,0,.2-.1.2h-.1v-.1h-.1v-.1a1.1,1.1,0,0,1,.61-.2v.1A.38.38,0,0,0,36.4,82.21Z"/><path class="i" d="M30.37,82.41H30v-.1a.53.53,0,0,0,.41-.2Z"/><path class="i" d="M31.19,82.31h.41v.1h-.1c-.1.2-.1.1-.2.2A.38.38,0,0,1,31.19,82.31Z"/><path class="i" d="M35.28,82.52h.1v.1Z"/><path class="i" d="M30.47,82.62h.2v.1c0-.1-.1-.1-.2-.1Z"/><path class="i" d="M34.25,82.62c0,.31.1.41.1.61h.1c.1.41.2.72.31,1.12l.1.1v.2c.1,0,.1.1.2.1a.78.78,0,0,1,.2.51h.2v.31c.31.2.41.41.41.92a1.3,1.3,0,0,0-.1.61h-.1v.2l-.1.1v.2h-.1v.2h-.1V88l-.1.1v.2h-.1v.2l-.2.2V89c-.2.1-.31.2-.51.31v-.1c-.2,0-.51-.1-.72-.1a.78.78,0,0,1-.2-.41h-.1c0-.1,0-.1-.1-.2h-.2c0-.1-.1-.2-.1-.31h-.1a.36.36,0,0,0-.1-.2h-.1v-.2c-.1-.1-.31-.2-.41-.31a2.54,2.54,0,0,0-.92.1v.1h-.1v.1l-.2.2v.2c-.31,0-.51-.1-.72,0v.1h-.1v.1a2.12,2.12,0,0,1-.61-.2V88c.2-.2,0-.1.1-.41h.1c0-.2-.1-.92-.1-1l-.1-.1v-.2h-.1c-.1-.1-.1-.2-.2-.41h.1a1.74,1.74,0,0,1,.1-.72.36.36,0,0,1,.2.1v-.1c.1,0,.1-.1.2-.1V85h.1v-.1h.1v-.1h.1v-.1h.1a.36.36,0,0,1,.1-.2c.1,0,.1-.1.2-.1.2-.31,0-.41.41-.61v-.2c.1,0,.41-.1.41-.2h.1v.2c.31,0,.31-.2.61-.31v-.31c.1-.1.2-.1.41-.1v.1H33c0,.2-.1.51-.1.72.1,0,.1.1.2.1.1.2.2.2.41.2v.2h.2c.1-.41.1-.82.2-1.33C34.15,82.62,34.25,82.62,34.25,82.62Z"/><path class="i" d="M36,82.72h.1v.1C36,82.82,36,82.82,36,82.72Z"/><path class="i" d="M19.33,83.13a3.83,3.83,0,0,1-.1,1.12h-.1v.2l-.1.1v.2h-.1V85h-.1c-.1.31.1.41-.2.61v.1c-.1,0-.2.1-.41.1,0-.2-.1-.51-.1-.61h.1V85h.1a5,5,0,0,1,.1-1.23c.2-.1.31-.31.61-.41v-.2C19.12,83.23,19.22,83.13,19.33,83.13Z"/><path class="i" d="M39.57,88.65h.1a2.44,2.44,0,0,1,.2.92c-.1.1-.1.2-.2.31l-.1.1v-.41c-.1,0-.1-.1-.2-.1.31-.72,0-.72-.2-1.23h.1v.1C39.47,88.34,39.47,88.45,39.57,88.65Z"/><path class="i" d="M35,89.88a1.52,1.52,0,0,1-.1.72h-.1v.1h-.2v-.2c-.2-.1-.2-.1-.2-.51A1.8,1.8,0,0,1,35,89.88Z"/><path class="i" d="M39.47,89.88c0,.1,0,.2.1.2h-.1v.1h-.1v.2l-.1-.1v.2c-.1,0-.1.1-.2.1v.1l-.31.31v.2h-.1c0,.1,0,.1-.1.2h-.41a.92.92,0,0,1,.1-.51c.2,0,.31-.1.51-.2,0-.1.31-.61.2-.72h.2v-.1Z"/></g><g class="j"><path class="i" d="M57.46,53.68v.61c.2,0,.31.1.51.1v.1c.2,0,.31-.1.51-.1v-.1c.31,0,.61.1,1,.1a3.5,3.5,0,0,0,.1,1.12c-.1,0-.2.1-.41.1v.1h-.41v.1h-.41v.1a6.52,6.52,0,0,1-.72.2V56h-.1v-.1a6.52,6.52,0,0,0-.72-.2c0-.2-.1-.2-.1-.2V54.4a2.14,2.14,0,0,0-.41-.61h-.2v-.1l-.1-.1v-.2h-.1c-.1-.1-.1-.31-.2-.41s0-.1.1-.2.1.1.2.1V53h.41c0,.1.1.2.1.41A9.65,9.65,0,0,1,57.46,53.68Z"/><path class="i" d="M52.56,53.17a1.9,1.9,0,0,1,.2.72c.41.1.41.41.51.82.1-.1.1,0,.1-.1h.1v-.41c-.2-.1-.1-.2-.2-.51h.1v-.2h.1a.77.77,0,0,1,.1-.41h.1a2.44,2.44,0,0,0,.2.92v.1h.41v.72h.2v.1h.1v.41h-.1v-.2h-.2v.2c-.41,0-1,.31-1.43.2v-.1c-.1,0-.2-.1-.31-.1a.38.38,0,0,0-.1-.31c-.1,0-.2-.1-.41-.1v-.1c.1-.1,0,0,.1-.2-.2,0-.2,0-.31.1v-.1h-.1v-.1h.1V54h-.2v.2h-.31c-.1-.31-.31-.2-.31-.61h.1v-.31h.2c.1,0,0-.2.2-.2,0,0,.1.31.31.2,0-.1,0-.1.1-.2s.1-.1.2-.1v-.1c.1,0,0,.1.1.1C52.35,53.17,52.45,53.17,52.56,53.17Z"/><path class="i" d="M54.6,53.48h.1V54a2,2,0,0,1,.82-.1v-.41c.31.1.41.31.41.72H56v.2h-.1c0,.2.1.31.1.41h-.1a1.3,1.3,0,0,1-.1.61c-.2,0-.31,0-.41.1v-.41h-.1v-.31a1.1,1.1,0,0,1-.61-.2C54.7,54.19,54.6,53.89,54.6,53.48Z"/><path class="i" d="M56.44,54.4c.1.1,0,0,.1.2h-.1Z"/><path class="i" d="M57.77,55.73c.1,0,.1.1.2.1a3.83,3.83,0,0,0,.1,1.12v.1h.2c.31.2.31.1.31.61-.1.1-.1.2-.2.31h-.1v.2c-.2.1-.31.31-.51.41V59h.1a3.41,3.41,0,0,0,.31,1.53h.2v.41h.41a.78.78,0,0,0,.2.41V62h.1a.61.61,0,0,1,.1-.41h.1v-.31h.1c0-.2-.1-.2-.1-.2v-.51h-.1v-.41l-.1-.1v-.2l-.2-.2v-.2l-.1-.1v-.51h-.2c.1-.31.1-.2.2-.31v-.41h.1c.1-.1.1-.2.1-.41a6.75,6.75,0,0,0,1.43-.1,1.52,1.52,0,0,0-.1.72c.1.1.1.1.31.1s0,0,.2-.1V58h-.1v-.1h.1v-.51h.41a.78.78,0,0,0,.2.41c0,.2-.1.41-.1.61.31,0,.41.1.61.1v.41l.61.31c-.1.31-.2.2,0,.41v.1c.1,0,.31.1.41.1v.41c.1,0,.1.1.2.1a2,2,0,0,0-.1.82c.1.1.2.1.41.2v.2h.31c.1-.2,0-.2.2-.31v.31c.2,0,.41.1.61.1v.41h-.1v.72c-.41.51-.51.51-.61.72h-.1v.31c-.1.2-.2,0-.31.51.2.2.1.41.1.72-.2,0-.2,0-.2.31a1.1,1.1,0,0,1-.61-.2V65c-.1,0-.31-.1-.41-.1v-.51l-.51-.51h-.41c0,.1-.1.1-.1.2s0-.2-.31,0V64c-.2-.2-.1-.72-.1-1.12H61v-.31h.1v-.1h.2c0-.1.1-.1.1-.2a.38.38,0,0,0,.31-.1,2.83,2.83,0,0,1,.1-.92h-.1V61h-.1c-.1-.1-.1-.2-.1-.41-.1,0-.2-.1-.31-.1v-.2h-.51c0,.1,0,0-.1.1v.31h-.1v-.41h-.41c0,.51.1.72.1,1a2.25,2.25,0,0,1-.1.82c0,.1,0,.1-.2.1-.1.51-.31.51-.41,1l.1.1H60v.1h.1v.41h.31v.41c-.1,0-.2,0-.2.1v.31h.1c.1.1-.2.1-.2.1v.1c-.1,0-.2,0-.2.1v-.2H60v-.1h.1v-.41H60v-.2h-.2v.41c-.41-.1-.51-.2-.41-.82h.1a1.3,1.3,0,0,1,.1-.61h-.2v.1A1.06,1.06,0,0,0,59,64h-.31a5,5,0,0,0-.31.72h-.31c0,.1-.1.31-.1.41s-.1.1-.2.1a4.43,4.43,0,0,1-.1.51h-.1c0,.41-.1.72-.1,1.12.2.1.2.2.31.31v.1h.1c0,.1,0,.1.1.2s.31.1.41.1a4.45,4.45,0,0,1,.41.72c.2.2.51,0,.61.2s0,.2.1.51l.1.1c0,.2.1.41.1.61a1.5,1.5,0,0,0,.41.2,1.11,1.11,0,0,0,.1-.61c.2-.2,0-.41,0-.61h-.1v-.2c.2,0,.1,0,.2-.2a1,1,0,0,0,.2-.82l-.1-.1c.1-.82.2-1.53.31-2.35.1,0,.2,0,.2-.1v-.1c.1,0,.1.2.1.2h.41c.31.2.41.41.92.41v.2c.1.1.2.1.41.1,0,.1-.1.2-.1.31h-.2V67c.1.1.1.1.31.1s0,0,.2-.1c0-.1.1-.1.2-.2v-.31h.1v-.2h.1v-.41h.1a1.32,1.32,0,0,0,.2.82l.1.1v.51h.1v.51l.1.1v.2c.1,0,.1.1.2.1s0,.1.1.2.2.1.41.1c0,.1,0,.1.1.2.2.31.2.2.2.82h-.1V70H65v.41h.2c.1.41.31.51.31,1.12h-.1c0-.31,0-.2-.31-.31v.1H65v.31c-.2,0-.2.1-.31.2v-.31c-.1,0-.41-.2-.41-.31v-.2h-.1a5,5,0,0,0,.31-.72c-.41,0-.51.1-.82.1v.31h-.41c-.41.2-.41.72-.41,1.12h.2v-.31h.2v-.1c.1-.1,0,0,.1-.2h.2v.1a1.45,1.45,0,0,1,.2.61h-.1v-.2h-.2v.41c-.1,0-.2,0-.2.1v.1h-.51v.2h-.1v-.51h-.41c0,.1-.1.2-.1.31-.31.1-.1.1-.2.31h-.1c-.1.1-.1.2-.1.41h-.1c-.2.31-.41.2-.51.72-.31.1-.31.31-.31.72h-.1a2.44,2.44,0,0,1-.31.92v.1h-.1c0,.1-.1.1-.1.2h-.1v.1H60V76c-.1,0-.1.1-.2.1v.2h-.1c-.1.82.1.92-.1,1.64h-.1v-.2h-.1v-.92l-.1-.1v-.2h-.51c-.1,0-.1-.41-.31-.31,0,.1-.1.1-.1.2h-.1v.31a.61.61,0,0,0-.41.1c0-.1-.1-.2-.1-.31h-.61v.1c-.1,0-.2,0-.2.1s-.1.1-.1.2h-.1v.2c-.1,0-.1.1-.2.1v.51h-.1v.82l.1.1v.2h.1V79l.2.2v.2h.72c0-.31,0-.51.1-.61h.1c0-.1,0-.1-.1-.2h.1v.1c.1.1.2-.1.31-.1a.1.1,0,0,0,.1.1v.2l.1.1a1.17,1.17,0,0,1-.31.61v.41l.1.1a1.93,1.93,0,0,0,.82.2V81.6a.79.79,0,0,1,.31.2v.1c.31.1.61.1.92.2V82h.1a4.43,4.43,0,0,1,.1-.51h.61c0-.1.1-.2.1-.41h.1v.51c.2,0,.41-.31.61-.1,0,.1.1.2.1.31.41,0,.72.1,1.12.1,0,.1.1.2.1.31s.31.1.41.1A2,2,0,0,0,65,83.44c0,.31.1.2.1.51h.1v.72a2,2,0,0,0,.82.31c-.1,1.84-.31,3.68-.41,5.42-.31.1-.31.2-.61.31a5.13,5.13,0,0,0-.2,1.23c-.1,0-.1.1-.2.1s-.1.31-.1.41h-.31a5,5,0,0,0-.31.72c-.31,0-.41.1-.72.1a2.54,2.54,0,0,1-.1.92.63.63,0,0,1-.61.1v.1h-.31c-.1.41-.1.2-.2.61-.1,0-.2,0-.2.1-.1.82-.41.92-.61,1.64a3.4,3.4,0,0,1,.31.61c-.31,0-.31.2-.51.2-.1.31-.2.51-.31.82v.82c.2.2.41.31.61.51v.1h-.1c-.1.2-.31.2-.51.1v-.2h-.2v-.41h-.31v-.2c-.72-.31-.41-1.74-.41-2.56h-.1v-.1c.1-.1.2-.2.31-.2.1-.41.1-.72.2-1.12H60v-.2l-.1-.1c0-.1.1-.2.1-.31h-.1c0-.1.1-.2.1-.31h-.1a1.3,1.3,0,0,1,.1-.61h.1v-.2h.1v-.41h.1a1.3,1.3,0,0,1,.1-.61h.1v-.51h.1a2.83,2.83,0,0,1,.1-.92h.1v-.41h.1c0-.51.1-1,.1-1.53h-.1c0-.1.1-.1.1-.2v-.1h-.1v-.51c-.1-.1-.2-.1-.41-.1v-.2l-.61-.61v-.31h-.1c0-.31-.1-.31-.1-.61-.1-.1-.1,0-.1-.1s0-.1-.1-.31l-.31-.31v-.82h.1v-.2h.1v-.1h-.1a2.57,2.57,0,0,1,.2-1v-.1c.1-.1.31.1.41-.1a2.83,2.83,0,0,1,.1-.92l-.1-.1a.38.38,0,0,0-.1-.31c-.2-.2-.51,0-.72-.1,0-.1-.1-.2-.1-.31s-.2-.1-.31-.1v-.1a.79.79,0,0,0-.31-.2v-.41a4.14,4.14,0,0,0-.92-.51c-.1-.1,0,0-.1-.2a.1.1,0,0,1-.1-.1h-.51v-.1c-.2,0-.31.2-.51,0,0-.1,0-.1-.1-.2s-.2-.1-.41-.1v-.1h-.1c0-.1,0-.1-.1-.2h-.2V79c-.2-.2-.41-.1-.41-.51h-.1a2.83,2.83,0,0,0-.1-.92c-.72-.31-.41-1.23-1.12-1.43v.1h.1v.51h.1V77l.1.1c0,.2.1.41.1.61a1,1,0,0,1-.41-.51V77c0-.1-.51-.41-.61-.51-.41.1-.31.1-.31-.2-.1,0-.1-.1-.2-.1a1.58,1.58,0,0,0-.2-.82v-.31l-.2-.2v-.2l-.1-.1v-.1c-.1,0-.2-.1-.31-.1a.19.19,0,0,1,0-.31c0-.2-.1-.1-.2-.2,0-.31-.1-.2-.1-.31v-1h-.1c0-.31.1-.72.1-1h.1a3.86,3.86,0,0,0,0-1.53c-.1-.1-.2-.1-.41-.2,0-.31,0-.2-.2-.31a1.3,1.3,0,0,1,.1-.61c-.31-.2,0-.41-.61-.41,0,.1-.1.2-.1.31l-.1-.1c0-.2-.1-.2,0-.51H50l-.1-.1v-.92c-.1,0-.2-.1-.41-.1a1.74,1.74,0,0,1,.1-.72c-.1,0-.2-.1-.31-.1V66h-.1v-.2a.32.32,0,0,1-.1-.2H49v-.1h-.1c0-.1,0-.1-.1-.2-.31,0-.61-.1-1-.1-.1-.2-.51-.1-.72-.1v.1h-.1c0,.1-.1.1-.1.2a.38.38,0,0,0-.31.1v-.1h.1v-.51h-.2c-.1.31-.1.51-.2.82-.1.1-.2.1-.2.2a.38.38,0,0,0,.1.31H46c0,.1-.1.1-.1.2h-.1a.31.31,0,0,0,0,.41v.1c-.1.1-.1-.1-.2.31h-.2c-.1,0-.1.31-.31.2v-.1c-.1-.1,0,0-.1-.2-.31,0-.41.2-.61.31v-.2c.1,0,.2,0,.2-.1V67c.2-.1.2-.31.51-.31v-.2h.31c.1-.31.1-.51.2-.82a1.74,1.74,0,0,1-.72-.1V65c-.2,0-.2,0-.31.1v-.31h-.1a1.06,1.06,0,0,0,.1-.41h-.1c0-.1-.1-.2-.1-.31h-.2V64c.41-.2.1-.2.31-.51.1,0,.1-.1.2-.1s.1-.2.1-.31H45v-.2h.2v-.41c-.31,0-.61,0-.72-.1s-.31-.51-.51-.72v-.1c.31-.1.51-.41.92-.51v.2c.1,0,.2.1.41.1V61h-.1v-.1h.1v-.51l-.61-.31V60h-.2v-.1c-.1-.1,0,0-.1-.2h.1c.1-.2,0-.2.2-.31v-.1h.2V59H45a8.11,8.11,0,0,1,.41-.92h.72c.1-.1.1-.2.2-.31s.2.1.31.1,0-.1.2-.1v.1c.1,0,.2.1.41.1s.1.31.2.41h.1c0,.1,0,.1.1.2h.2v.1c.51.1,1,.1,1.53.2V59h.31v.1a.8.8,0,0,0,.72.31V59.1c.2,0,.51-.1.72-.1v.31h.1c.1-.31.2-.41.41-.41v.2h.2v-.31c.51.1.2.2.41.41h.1V59h.1v.51a.77.77,0,0,0,.41-.1v.1c.2.1.2.2.31.31v.1c.1,0,.1.1.2.1s0,.1.1.2h.41v.41c.31.1.51.1.82.2v.1h.1v.31h.41a1.3,1.3,0,0,1,.1-.61,11.52,11.52,0,0,0,1.84.31l.2-.2v-.31c-.2,0-.2,0-.31.1v-.1H57v-.51c.2-.1.2-.1.2-.31h.2c.1-.31.1-.72.2-1h-.1c0,.1-.1.1-.1.2s-.2-.31-.2-.31h-.1v-.2c-.2-.1-.2-.1-.31-.41-.2-.1-.2-.2-.2-.61.1-.1,0,0,.1-.2h.2v-.41c.41-.31.41-.51,1.12-.51v-.31h-.1l-.1-.1C57.67,56.13,57.77,55.93,57.77,55.73Z"/><path class="i" d="M51.33,55.73a4.32,4.32,0,0,1,1.23.31c0,.1.2.31.2.31a.77.77,0,0,1-.1.41h.1l.1.1a.38.38,0,0,0,.1.31c.1,0,.2-.1.31-.1v.31c.2,0,.2-.1.41-.2v-.1c.1,0,.2.31.2.31h.2a.77.77,0,0,1,.1-.41c.1,0,.1.1.2.1a3.62,3.62,0,0,0,.31,1.12v.72h.1V59H55v-.1h.31a1.74,1.74,0,0,1-.1.72H55v.61a2,2,0,0,0-1.12-.2v.1c-.1,0-.2.1-.31.1v.1a6.52,6.52,0,0,0-.72-.2v-.31a1.1,1.1,0,0,0-.61-.2.61.61,0,0,0-.1-.41c.41,0,.61-.1.61-.51-.1,0-.41.2-.51.1v-.1h-.1v-.41h.1V58l-.41-.2c-.1.2-.41.31-.72.41-.1-.2-.1-.31-.31-.41,0-.2-.1-.61,0-.82l.2-.2A3,3,0,0,0,51.33,55.73Z"/><path class="i" d="M59.92,77.3a.38.38,0,0,0,.1.31,1.52,1.52,0,0,1,.72.1v.2a1.52,1.52,0,0,1-.72-.1c0-.1,0-.1-.1-.2h-.2v-.1c-.41-.1-.41.2-.51-.1h-.41v-.1c.2-.1.51-.1.72-.2v.1A.61.61,0,0,0,59.92,77.3Z"/><path class="i" d="M61.76,78.43h-.61c-.1-.1-.2-.2-.2-.31H61c.1-.2.2-.2.41-.31v.1h.2V78h.1Z"/><path class="i" d="M62.17,78.53a.38.38,0,0,1,.1-.31c.1,0,0,0,.1.1h.2v.1h-.1v.1Z"/><path class="i" d="M64,97c-.1.31-.2.51-.51.51a.77.77,0,0,0-.1-.51Z"/><path class="i" d="M61.45,98.16h-.1v-.1l.1.1a.32.32,0,0,1-.1-.2C61.45,98.06,61.45,98,61.45,98.16Z"/></g></svg>